<svg xmlns="http://www.w3.org/2000/svg" xmlns:svg="http://www.w3.org/2000/svg" xmlns:xlink="http://www.w3.org/1999/xlink" version="1.0" height="1186.0031962394717pt" width="1172.3985pt" viewBox="198.3985 352 1180.3985 1192.0031962394717" ><defs><style type="text/css">
            @font-face {
                font-family: 'noto_regular';
                src: url('https://app.creately.com/diagram/assets/fonts/noto/noto-regular.woff') format('woff'),
                     url('https://app.creately.com/diagram/assets/fonts/noto/noto-regular.woff2') format('woff2');
                font-weight: normal;
                font-style: normal;
            }
        p {
            margin: 0;
        }
        </style></defs><defs><style>
            span{ display: inline-block; }
        </style></defs><g id="1fepa0f5fj"><g transform="translate(410.0000000000002 355) rotate(1.1560270119379853e-14)"><rect x="0" y="0" width="845.1934576034546" height="1186.0031962394714" fill="rgba(255,249,175,1)" stroke="#5c9900" stroke-width="2" stroke-linecap="round" stroke-linejoin="round"/></g><g transform="translate(810.0967288017275, 365.0000000000001) rotate(0, 22.5, 0)" width="45" height="18"><text text-decoration="none" x="0.5" fill="rgb(84, 84, 84)" font-size="10pt" font-family="noto_regular"  y="17">System</text><text text-decoration="none" x="44.5" fill="#4b4b4b" font-size="10pt" font-family="noto_regular"  y="17"></text></g></g><g id="qdjy92w34u"><g transform="translate(285 540)"><linearGradient id="ad156" x1="20.3985" y1="-40.403" x2="20.3985" y2="80.806" gradientUnits="userSpaceOnUse"><stop offset="0%" stop-color="rgba(255,255,255,1)"/><stop offset="100%" stop-color="rgba(255,239,170,1)"/></linearGradient><ellipse cx="20.3985" cy="10.10075" rx="10.19925" ry="10.10075" fill="url(#ad156)" stroke="#552189" stroke-width="2" stroke-linecap="round" stroke-linejoin="round"/><path d="M 20.3985,20.2015 L 20.3985,48.483599999999996 L 40.797,80.806 M 20.3985,48.483599999999996 L 0,80.806 M 2.03985,30.30225 L 38.757149999999996,30.30225" fill="none" stroke="#552189" stroke-width="2" stroke-linecap="round" stroke-linejoin="round"/><rect x="0" y="0" width="40.797" height="80.806" fill="rgba(255,255,255,0.01)" stroke="rgba(255,255,255,0.01)" stroke-width="2" stroke-linecap="round" stroke-linejoin="round"/></g><g transform="translate(290.3985, 625.806) rotate(0, 15, 0)" width="30" height="19"><text text-decoration="none" x="2" fill="rgb(85, 33, 137)" font-weight="bold" font-size="9pt" font-family="Arial"  y="17">user</text><text text-decoration="none" x="28" fill="#4b4b4b" font-size="10pt" font-family="noto_regular"  y="17"></text></g></g><g id="fy1nb9tbhb"><g transform="translate(585.1000000000001 432)"><linearGradient id="cdb97" x1="77.99970245361328" y1="-17.500000953674316" x2="77.99970245361328" y2="35.00000190734863" gradientUnits="userSpaceOnUse"><stop offset="0%" stop-color="rgba(255,255,255,1)"/><stop offset="100%" stop-color="rgba(239,239,239,1)"/></linearGradient><ellipse cx="77.99970245361328" cy="17.500000953674316" rx="77.99970245361328" ry="17.500000953674316" fill="url(#cdb97)" stroke="#04699a" stroke-width="2" stroke-linecap="round" stroke-linejoin="round"/></g><g transform="translate(617.0997024536134, 440.0000009536743) rotate(0, 46, 9.5)" width="92" height="19"><text text-decoration="none" x="3" fill="rgb(219, 59, 15)" font-size="9pt" font-family="Arial"  y="17">Create&#160;</text><text text-decoration="none" x="44" fill="rgb(219, 59, 15)" font-size="9pt" font-family="Arial"  y="17">whistlist</text><text text-decoration="none" x="89" fill="#4b4b4b" font-size="10pt" font-family="noto_regular"  y="17"></text></g></g><g id="1swrkvqkuk"><g transform="translate(570 367)"><linearGradient id="1add3" x1="77.99970245361328" y1="-19.999999791383743" x2="77.99970245361328" y2="39.99999958276749" gradientUnits="userSpaceOnUse"><stop offset="0%" stop-color="rgba(255,255,255,1)"/><stop offset="100%" stop-color="rgba(239,239,239,1)"/></linearGradient><ellipse cx="77.99970245361328" cy="19.999999791383743" rx="77.99970245361328" ry="19.999999791383743" fill="url(#1add3)" stroke="#04699a" stroke-width="2" stroke-linecap="round" stroke-linejoin="round"/></g><g transform="translate(600.9997024536133, 377.49999979138374) rotate(0, 47, 9.5)" width="94" height="19"><text text-decoration="none" x="3.5" fill="rgb(219, 59, 15)" font-size="10pt" font-family="Arial"  y="17">earned&#160;</text><text text-decoration="none" x="48.5" fill="rgb(219, 59, 15)" font-size="10pt" font-family="Arial"  y="17">reward</text><text text-decoration="none" x="90.5" fill="#4b4b4b" font-size="10pt" font-family="noto_regular"  y="17"></text></g></g><g id="60gsmap061"><g transform="translate(585.0333333333333 495)"><linearGradient id="bbc55" x1="56.22644418478012" y1="-19.997901886701584" x2="56.22644418478012" y2="39.99580377340317" gradientUnits="userSpaceOnUse"><stop offset="0%" stop-color="rgba(255,255,255,1)"/><stop offset="100%" stop-color="rgba(239,239,239,1)"/></linearGradient><ellipse cx="56.22644418478012" cy="19.997901886701584" rx="56.22644418478012" ry="19.997901886701584" fill="url(#bbc55)" stroke="#04699a" stroke-width="2" stroke-linecap="round" stroke-linejoin="round"/></g><g transform="translate(604.7597775181134, 505.4979018867016) rotate(0, 36.5, 9.5)" width="73" height="19"><text text-decoration="none" x="2.5" fill="rgb(219, 59, 15)" font-size="9pt" font-family="Arial"  y="17">search&#160;</text><text text-decoration="none" x="43.5" fill="rgb(219, 59, 15)" font-size="9pt" font-family="Arial"  y="17">book</text><text text-decoration="none" x="70.5" fill="#4b4b4b" font-size="10pt" font-family="noto_regular"  y="17"></text></g></g><g id="9r48un6rfr"><g transform="translate(1090 1085)"><linearGradient id="60145" x1="62.51209455728531" y1="-40.00000321865082" x2="62.51209455728531" y2="80.00000643730164" gradientUnits="userSpaceOnUse"><stop offset="0%" stop-color="rgba(255,255,255,1)"/><stop offset="100%" stop-color="rgba(239,239,239,1)"/></linearGradient><ellipse cx="62.51209455728531" cy="40.00000321865082" rx="62.51209455728531" ry="40.00000321865082" fill="url(#60145)" stroke="#04699a" stroke-width="2" stroke-linecap="round" stroke-linejoin="round"/></g><g transform="translate(1138.0120945572853, 1115.5000032186508) rotate(0, 14.5, 9.5)" width="29" height="19"><text text-decoration="none" x="1" fill="rgb(214, 77, 4)" font-size="9pt" font-family="Arial"  y="17">login</text><text text-decoration="none" x="28" fill="#4b4b4b" font-size="10pt" font-family="noto_regular"  y="17"></text></g></g><g id="a0yzn0rbdc"><g transform="translate(735 1175)"><linearGradient id="feca6" x1="93.77830374240875" y1="88.71225553750992" x2="93.77830374240875" y2="0" gradientUnits="userSpaceOnUse"><stop offset="0%" stop-color="rgba(255,255,255,1)"/><stop offset="100%" stop-color="rgba(203,201,242,1)"/></linearGradient><ellipse cx="93.77830374240875" cy="29.57075184583664" rx="93.77830374240875" ry="29.57075184583664" fill="url(#feca6)" stroke="#5a56a3" stroke-width="2" stroke-linecap="round" stroke-linejoin="round"/></g><g transform="translate(780.7783037424088, 1195.0707518458366) rotate(0, 48, 9.5)" width="96" height="19"><text text-decoration="none" x="3" fill="rgb(20, 19, 45)" font-size="9pt" font-family="Arial"  y="17">Manage&#160;</text><text text-decoration="none" x="52" fill="rgb(20, 19, 45)" font-size="9pt" font-family="Arial"  y="17">System</text><text text-decoration="none" x="93" fill="#4b4b4b" font-size="10pt" font-family="noto_regular"  y="17"></text></g></g><g id="p11dt5mzg3"><g transform="translate(205 1020)"><linearGradient id="ad156" x1="20.3985" y1="-40.403" x2="20.3985" y2="80.806" gradientUnits="userSpaceOnUse"><stop offset="0%" stop-color="rgba(255,255,255,1)"/><stop offset="100%" stop-color="rgba(255,239,170,1)"/></linearGradient><ellipse cx="20.3985" cy="10.10075" rx="10.19925" ry="10.10075" fill="url(#ad156)" stroke="#552189" stroke-width="2" stroke-linecap="round" stroke-linejoin="round"/><path d="M 20.3985,20.2015 L 20.3985,48.483599999999996 L 40.797,80.806 M 20.3985,48.483599999999996 L 0,80.806 M 2.03985,30.30225 L 38.757149999999996,30.30225" fill="none" stroke="#552189" stroke-width="2" stroke-linecap="round" stroke-linejoin="round"/><rect x="0" y="0" width="40.797" height="80.806" fill="rgba(255,255,255,0.01)" stroke="rgba(255,255,255,0.01)" stroke-width="2" stroke-linecap="round" stroke-linejoin="round"/></g><g transform="translate(203.3985, 1105.806) rotate(0, 22, 0)" width="44" height="19"><text text-decoration="none" x="2" fill="rgb(85, 33, 137)" font-weight="bold" font-size="9pt" font-family="Arial"  y="17">Admin</text><text text-decoration="none" x="42" fill="#4b4b4b" font-size="10pt" font-family="noto_regular"  y="17"></text></g></g><g id="1oa3xlvc2x"><g><path d="M 325,570 L 580,397" fill="none" stroke="#b7b7b7" stroke-width="1.5" stroke-linecap="round" stroke-linejoin="round"/><path d="M 580,397 L 569.5759134229158,397.1236356062517 L 576.0322670761744,406.6402262512282 Z" fill="rgb(183,183,183)" stroke="#b7b7b7" stroke-width="1.5" stroke-linecap="round" stroke-linejoin="round"/></g></g><g id="6re8xiseq3"><g><path d="M 245,1050 L 735,1205" fill="none" stroke="#552189" stroke-width="2" stroke-linecap="round" stroke-linejoin="round"/></g></g><g id="7jefhifz68"><g transform="translate(530 570) rotate(2.1206580690018993e-16)"><linearGradient id="52043" x1="79.98912006616592" y1="-30.999999403953552" x2="79.98912006616592" y2="61.999998807907104" gradientUnits="userSpaceOnUse"><stop offset="0%" stop-color="rgba(255,255,255,1)"/><stop offset="100%" stop-color="rgba(239,239,239,1)"/></linearGradient><ellipse cx="79.98912006616592" cy="30.999999403953552" rx="79.98912006616592" ry="30.999999403953552" fill="url(#52043)" stroke="#04699a" stroke-width="2" stroke-linecap="round" stroke-linejoin="round"/></g><g transform="translate(576.4891200661659, 591.4999994039536) rotate(0, 33.5, 9.5)" width="67" height="19"><text text-decoration="none" x="1.5" fill="rgb(219, 59, 15)" font-size="9pt" font-family="Arial"  y="17">Place&#160;</text><text text-decoration="none" x="34.5" fill="rgb(219, 59, 15)" font-size="9pt" font-family="Arial"  y="17">order</text><text text-decoration="none" x="65.5" fill="#4b4b4b" font-size="10pt" font-family="noto_regular"  y="17"></text></g></g><g id="54b8k0sp02"><g transform="translate(1075 1225)"><linearGradient id="97f60" x1="63.41637134552002" y1="-25.50000050663948" x2="63.41637134552002" y2="51.00000101327896" gradientUnits="userSpaceOnUse"><stop offset="0%" stop-color="rgba(255,255,255,1)"/><stop offset="100%" stop-color="rgba(239,239,239,1)"/></linearGradient><ellipse cx="63.41637134552002" cy="25.50000050663948" rx="63.41637134552002" ry="25.50000050663948" fill="url(#97f60)" stroke="#04699a" stroke-width="2" stroke-linecap="round" stroke-linejoin="round"/></g><g transform="translate(1079.91637134552, 1241.0000005066395) rotate(0, 58.5, 9.5)" width="117" height="19"><text text-decoration="none" x="4" fill="rgb(214, 77, 4)" font-size="9pt" font-family="Arial"  y="17">Update&#160;</text><text text-decoration="none" x="48" fill="rgb(214, 77, 4)" font-size="9pt" font-family="Arial"  y="17">information</text><text text-decoration="none" x="113" fill="#4b4b4b" font-size="10pt" font-family="noto_regular"  y="17"></text></g></g><g id="7vwk1aus7t"><g transform="translate(1085 1315)"><linearGradient id="21316" x1="53.2080352306366" y1="-20.499999195337296" x2="53.2080352306366" y2="40.99999839067459" gradientUnits="userSpaceOnUse"><stop offset="0%" stop-color="rgba(255,255,255,1)"/><stop offset="100%" stop-color="rgba(239,239,239,1)"/></linearGradient><ellipse cx="53.2080352306366" cy="20.499999195337296" rx="53.2080352306366" ry="20.499999195337296" fill="url(#21316)" stroke="#04699a" stroke-width="2" stroke-linecap="round" stroke-linejoin="round"/></g><g transform="translate(1106.7080352306366, 1325.9999991953373) rotate(0, 31.5, 9.5)" width="63" height="19"><text text-decoration="none" x="2.5" fill="rgb(214, 77, 4)" font-size="9pt" font-family="Arial"  y="17">Add&#160;</text><text text-decoration="none" x="27.5" fill="rgb(214, 77, 4)" font-size="9pt" font-family="Arial"  y="17">books</text><text text-decoration="none" x="60.5" fill="#4b4b4b" font-size="10pt" font-family="noto_regular"  y="17"></text></g></g><g id="234wsvca6f"><g transform="translate(545 1020)"><linearGradient id="ad45b" x1="50.29137009382248" y1="-22.999999850988388" x2="50.29137009382248" y2="45.999999701976776" gradientUnits="userSpaceOnUse"><stop offset="0%" stop-color="rgba(255,255,255,1)"/><stop offset="100%" stop-color="rgba(239,239,239,1)"/></linearGradient><ellipse cx="50.29137009382248" cy="22.999999850988388" rx="50.29137009382248" ry="22.999999850988388" fill="url(#ad45b)" stroke="#04699a" stroke-width="2" stroke-linecap="round" stroke-linejoin="round"/></g><g transform="translate(569.2913700938225, 1033.4999998509884) rotate(0, 26, 9.5)" width="52" height="19"><text text-decoration="none" x="2.5" fill="rgb(214, 77, 4)" font-size="9pt" font-family="Arial"  y="17">Check&#160;</text><text text-decoration="none" x="39.5" fill="rgb(214, 77, 4)" font-size="9pt" font-family="Arial"  y="17">in</text><text text-decoration="none" x="49.5" fill="#4b4b4b" font-size="10pt" font-family="noto_regular"  y="17"></text></g></g><g id="272yjxmbqu"><g transform="translate(900.0333333333334 985)"><linearGradient id="d496f" x1="50.29137009382248" y1="-30.5" x2="50.29137009382248" y2="61" gradientUnits="userSpaceOnUse"><stop offset="0%" stop-color="rgba(255,255,255,1)"/><stop offset="100%" stop-color="rgba(239,239,239,1)"/></linearGradient><ellipse cx="50.29137009382248" cy="30.5" rx="50.29137009382248" ry="30.5" fill="url(#d496f)" stroke="#04699a" stroke-width="2" stroke-linecap="round" stroke-linejoin="round"/></g><g transform="translate(910.3247034271559, 1006) rotate(0, 40, 9.5)" width="80" height="19"><text text-decoration="none" x="2.5" fill="rgb(214, 77, 4)" font-size="9pt" font-family="Arial"  y="17">Review&#160;</text><text text-decoration="none" x="44.5" fill="rgb(214, 77, 4)" font-size="9pt" font-family="Arial"  y="17">books</text><text text-decoration="none" x="77.5" fill="#4b4b4b" font-size="10pt" font-family="noto_regular"  y="17"></text></g></g><g id="1f3wa133t6"><g transform="translate(720 940)"><linearGradient id="95458" x1="87.48498922586441" y1="-20.499999195337296" x2="87.48498922586441" y2="40.99999839067459" gradientUnits="userSpaceOnUse"><stop offset="0%" stop-color="rgba(255,255,255,1)"/><stop offset="100%" stop-color="rgba(239,239,239,1)"/></linearGradient><ellipse cx="87.48498922586441" cy="20.499999195337296" rx="87.48498922586441" ry="20.499999195337296" fill="url(#95458)" stroke="#04699a" stroke-width="2" stroke-linecap="round" stroke-linejoin="round"/></g><g transform="translate(767.4849892258644, 950.9999991953373) rotate(0, 40, 9.5)" width="80" height="19"><text text-decoration="none" x="2" fill="rgb(214, 77, 4)" font-size="9pt" font-family="Arial"  y="17">Deliver&#160;</text><text text-decoration="none" x="45" fill="rgb(214, 77, 4)" font-size="9pt" font-family="Arial"  y="17">books</text><text text-decoration="none" x="78" fill="#4b4b4b" font-size="10pt" font-family="noto_regular"  y="17"></text></g></g><g id="a8l4eml9bc"><g><path d="M 910,1190 L 1090,1125" fill="none" stroke="#5a56a3" stroke-width="2" stroke-linecap="round" stroke-linejoin="round" stroke-dasharray="5 5"/><path d="M 1081.203432199064,1121.2294714248471 Q 1086.711350001078,1126.1875680551664 1090,1125 M 1085.641967805248,1133.520800795818 Q 1086.711350001078,1126.1875680551664 1090,1125 M 1090,1125 Z" fill="none" stroke="#5a56a3" stroke-width="2" stroke-linecap="round" stroke-linejoin="round"/></g></g><g id="26uxd2fwbd"><g><path d="M 805,980 L 830,1175" fill="none" stroke="#04699a" stroke-width="2" stroke-linecap="round" stroke-linejoin="round" stroke-dasharray="5 5"/><path d="M 835.5917840171711,1167.2328613815757 Q 829.5553695245267,1171.5318822913082 830,1175 M 822.6296940809356,1168.8946677836573 Q 829.5553695245267,1171.5318822913082 830,1175 M 830,1175 Z" fill="none" stroke="#04699a" stroke-width="2" stroke-linecap="round" stroke-linejoin="round"/></g></g><g id="w70jjibz70"><mask id="e5835" x="861" y="1026" width="78.03333333333342" height="168" maskUnits="userSpaceOnUse"><rect x="861" y="1026" width="78.03333333333342" height="168" fill="white" /><rect x="852.5166666666667" y="1097.5" width="95" height="25" fill="black" /></mask><g mask="url(#e5835)"><path d="M 925.0333333333334,1040 L 875,1180" fill="none" stroke="#04699a" stroke-width="2" stroke-linecap="round" stroke-linejoin="round" stroke-dasharray="5 5"/><path d="M 883.5063563466887,1175.6138408013778 Q 876.1766966224804,1176.7074444940588 875,1180 M 871.2004301432331,1171.2159371748571 Q 876.1766966224804,1176.7074444940588 875,1180 M 875,1180 Z" fill="none" stroke="#04699a" stroke-width="2" stroke-linecap="round" stroke-linejoin="round"/></g><g transform="translate(855.5166666666667, 1100.5)" width="89" height="19"><text text-decoration="none" x="9.5" fill="rgb(75, 75, 75)" font-size="10pt" font-family="Lato"  y="17">&#x3C;&#x3C;extend&#x3E;&#x3E;</text><text text-decoration="none" x="79.5" fill="#4b4b4b" font-size="10pt" font-family="noto_regular"  y="17"></text></g></g><g id="1zpa1by70t"><g><path d="M 1075,1250 L 925,1205" fill="none" stroke="#04699a" stroke-width="2" stroke-linecap="round" stroke-linejoin="round" stroke-dasharray="5 5"/><path d="M 929.8205287038119,1213.267949795943 Q 928.3490429553187,1206.0047128865956 925,1205 M 933.575643117463,1200.7509017504394 Q 928.3490429553187,1206.0047128865956 925,1205 M 925,1205 Z" fill="none" stroke="#04699a" stroke-width="2" stroke-linecap="round" stroke-linejoin="round"/></g></g><g id="1h68mw9xos"><mask id="2d0c8" x="861" y="1216" width="238" height="133" maskUnits="userSpaceOnUse"><rect x="861" y="1216" width="238" height="133" fill="white" /><rect x="932.5" y="1270" width="95" height="25" fill="black" /></mask><g mask="url(#2d0c8)"><path d="M 1085,1335 L 875,1230" fill="none" stroke="#04699a" stroke-width="2" stroke-linecap="round" stroke-linejoin="round" stroke-dasharray="5 5"/><path d="M 878.3326013126199,1238.9716363782552 Q 878.1273678006991,1231.5636839003496 875,1230 M 884.1768698901761,1227.2830992231427 Q 878.1273678006991,1231.5636839003496 875,1230 M 875,1230 Z" fill="none" stroke="#04699a" stroke-width="2" stroke-linecap="round" stroke-linejoin="round"/></g><g transform="translate(935.5, 1273)" width="89" height="19"><text text-decoration="none" x="9.5" fill="rgb(75, 75, 75)" font-size="10pt" font-family="Lato"  y="17">&#x3C;&#x3C;extend&#x3E;&#x3E;</text><text text-decoration="none" x="79.5" fill="#4b4b4b" font-size="10pt" font-family="noto_regular"  y="17"></text></g></g><g id="1xenc9e6jw"><g><path d="M 640,1055 L 780,1180" fill="none" stroke="#b7b7b7" stroke-width="1.5" stroke-linecap="round" stroke-linejoin="round"/><path d="M 779.1354602994548,1170.4685225741919 Q 777.3918263579513,1177.6712735338851 780,1180 M 770.4318451323505,1180.2165715613487 Q 777.3918263579513,1177.6712735338851 780,1180 M 780,1180 Z" fill="none" stroke="#b7b7b7" stroke-width="1.5" stroke-linecap="round" stroke-linejoin="round"/></g></g><g id="j0isf1e5j8"><g transform="translate(1040.116666666667 397)"><linearGradient id="1add3" x1="77.99970245361328" y1="-19.999999791383743" x2="77.99970245361328" y2="39.99999958276749" gradientUnits="userSpaceOnUse"><stop offset="0%" stop-color="rgba(255,255,255,1)"/><stop offset="100%" stop-color="rgba(239,239,239,1)"/></linearGradient><ellipse cx="77.99970245361328" cy="19.999999791383743" rx="77.99970245361328" ry="19.999999791383743" fill="url(#1add3)" stroke="#04699a" stroke-width="2" stroke-linecap="round" stroke-linejoin="round"/></g><g transform="translate(1103.6163691202803, 407.49999979138374) rotate(0, 14.5, 9.5)" width="29" height="19"><text text-decoration="none" x="1" fill="rgb(214, 77, 4)" font-size="9pt" font-family="Arial"  y="17">login</text><text text-decoration="none" x="28" fill="#4b4b4b" font-size="10pt" font-family="noto_regular"  y="17"></text></g></g><g id="235ifun5o6"><mask id="e14e8" x="712" y="374" width="381.116666666667" height="41" maskUnits="userSpaceOnUse"><rect x="712" y="374" width="381.116666666667" height="41" fill="white" /><rect x="854.0583333333335" y="382" width="97" height="25" fill="black" /></mask><g mask="url(#e14e8)"><path d="M 725,387 L 1080.116666666667,402" fill="none" stroke="#b7b7b7" stroke-width="1.5" stroke-linecap="round" stroke-linejoin="round" stroke-dasharray="5 5"/><path d="M 1073.4056415128596,395.1766113845486 Q 1076.623278210725,401.85244053079515 1080.116666666667,402 M 1072.8541379967064,408.233150738632 Q 1076.623278210725,401.85244053079515 1080.116666666667,402 M 1080.116666666667,402 Z" fill="none" stroke="#b7b7b7" stroke-width="1.5" stroke-linecap="round" stroke-linejoin="round"/></g><g transform="translate(857.0583333333335, 385)" width="91" height="19"><text text-decoration="none" x="10" fill="rgb(75, 75, 75)" font-size="10pt" font-family="Lato"  y="17">&#x3C;&#x3C;include&#x3E;&#x3E;</text><text text-decoration="none" x="81" fill="#4b4b4b" font-size="10pt" font-family="noto_regular"  y="17"></text></g></g><g id="270xmw1p2f"><mask id="311f4" x="727.1000000000001" y="414" width="336.0166666666669" height="51" maskUnits="userSpaceOnUse"><rect x="727.1000000000001" y="414" width="336.0166666666669" height="51" fill="white" /><rect x="846.6083333333336" y="427" width="97" height="25" fill="black" /></mask><g mask="url(#311f4)"><path d="M 740.1000000000001,452 L 1050.116666666667,427" fill="none" stroke="#b7b7b7" stroke-width="1.5" stroke-linecap="round" stroke-linejoin="round" stroke-dasharray="5 5"/><path d="M 1042.6210773876123,421.04914861786733 Q 1046.6314768021261,427.2810485886141 1050.116666666667,427 M 1043.6714964875578,434.07504573658923 Q 1046.6314768021261,427.2810485886141 1050.116666666667,427 M 1050.116666666667,427 Z" fill="none" stroke="#b7b7b7" stroke-width="1.5" stroke-linecap="round" stroke-linejoin="round"/></g><g transform="translate(849.6083333333336, 430)" width="91" height="19"><text text-decoration="none" x="10" fill="rgb(75, 75, 75)" font-size="10pt" font-family="Lato"  y="17">&#x3C;&#x3C;include&#x3E;&#x3E;</text><text text-decoration="none" x="81" fill="#4b4b4b" font-size="10pt" font-family="noto_regular"  y="17"></text></g></g><g id="11rwknq5cv"><g><path d="M 325,570 L 530,600" fill="none" stroke="#b7b7b7" stroke-width="1.5" stroke-linecap="round" stroke-linejoin="round"/><path d="M 530,600 L 522.2285860323339,593.0514755758621 L 520.5633954609862,604.4302778134042 Z" fill="rgb(183,183,183)" stroke="#b7b7b7" stroke-width="1.5" stroke-linecap="round" stroke-linejoin="round"/></g></g><g id="1imrkb0nse"><g><path d="M 325,570 L 585.1000000000001,452" fill="none" stroke="#b7b7b7" stroke-width="1.5" stroke-linecap="round" stroke-linejoin="round"/><path d="M 585.1000000000001,452 L 574.8055908942853,450.3562214583913 L 579.5567395378955,460.8288804601119 Z" fill="rgb(183,183,183)" stroke="#b7b7b7" stroke-width="1.5" stroke-linecap="round" stroke-linejoin="round"/></g></g><g id="1he9nfg20r"><g><path d="M 325,570 L 585.0333333333333,515" fill="none" stroke="#b7b7b7" stroke-width="1.5" stroke-linecap="round" stroke-linejoin="round"/><path d="M 585.0333333333333,515 L 575.3360320177774,511.17387742943373 L 577.7157637879047,522.4249607862597 Z" fill="rgb(183,183,183)" stroke="#b7b7b7" stroke-width="1.5" stroke-linecap="round" stroke-linejoin="round"/></g></g><g id="25is6yfd0f"><g transform="translate(944.9999999999995 535)"><linearGradient id="bbc55" x1="56.22644418478012" y1="-19.997901886701584" x2="56.22644418478012" y2="39.99580377340317" gradientUnits="userSpaceOnUse"><stop offset="0%" stop-color="rgba(255,255,255,1)"/><stop offset="100%" stop-color="rgba(239,239,239,1)"/></linearGradient><ellipse cx="56.22644418478012" cy="19.997901886701584" rx="56.22644418478012" ry="19.997901886701584" fill="url(#bbc55)" stroke="#04699a" stroke-width="2" stroke-linecap="round" stroke-linejoin="round"/></g><g transform="translate(981.2264441847797, 545.4979018867016) rotate(0, 20, 9.5)" width="40" height="19"><text text-decoration="none" x="1" fill="rgb(219, 59, 15)" font-size="9pt" font-family="Arial"  y="17">Basket</text><text text-decoration="none" x="39" fill="#4b4b4b" font-size="10pt" font-family="noto_regular"  y="17"></text></g></g><g id="1l00d8z6qa"><g transform="translate(944.9999999999995 475)"><linearGradient id="bbc55" x1="56.22644418478012" y1="-19.997901886701584" x2="56.22644418478012" y2="39.99580377340317" gradientUnits="userSpaceOnUse"><stop offset="0%" stop-color="rgba(255,255,255,1)"/><stop offset="100%" stop-color="rgba(239,239,239,1)"/></linearGradient><ellipse cx="56.22644418478012" cy="19.997901886701584" rx="56.22644418478012" ry="19.997901886701584" fill="url(#bbc55)" stroke="#04699a" stroke-width="2" stroke-linecap="round" stroke-linejoin="round"/></g><g transform="translate(959.7264441847797, 485.4979018867016) rotate(0, 41.5, 9.5)" width="83" height="19"><text text-decoration="none" x="3" fill="rgb(219, 59, 15)" font-size="9pt" font-family="Arial"  y="17">select&#160;</text><text text-decoration="none" x="39" fill="rgb(219, 59, 15)" font-size="9pt" font-family="Arial"  y="17">catalog</text><text text-decoration="none" x="80" fill="#4b4b4b" font-size="10pt" font-family="noto_regular"  y="17"></text></g></g><g id="7nvtfqmkmh"><g transform="translate(904.9999999999995 625)"><linearGradient id="bbc55" x1="56.22644418478012" y1="-19.997901886701584" x2="56.22644418478012" y2="39.99580377340317" gradientUnits="userSpaceOnUse"><stop offset="0%" stop-color="rgba(255,255,255,1)"/><stop offset="100%" stop-color="rgba(239,239,239,1)"/></linearGradient><ellipse cx="56.22644418478012" cy="19.997901886701584" rx="56.22644418478012" ry="19.997901886701584" fill="url(#bbc55)" stroke="#04699a" stroke-width="2" stroke-linecap="round" stroke-linejoin="round"/></g><g transform="translate(937.2264441847797, 635.4979018867016) rotate(0, 24, 9.5)" width="48" height="19"><text text-decoration="none" x="1.5" fill="rgb(219, 59, 15)" font-size="9pt" font-family="Arial"  y="17">Confirm</text><text text-decoration="none" x="46.5" fill="#4b4b4b" font-size="10pt" font-family="noto_regular"  y="17"></text></g></g><g id="4jeny48lac"><g transform="translate(799.9999999999995 670)"><linearGradient id="bbc55" x1="56.22644418478012" y1="-19.997901886701584" x2="56.22644418478012" y2="39.99580377340317" gradientUnits="userSpaceOnUse"><stop offset="0%" stop-color="rgba(255,255,255,1)"/><stop offset="100%" stop-color="rgba(239,239,239,1)"/></linearGradient><ellipse cx="56.22644418478012" cy="19.997901886701584" rx="56.22644418478012" ry="19.997901886701584" fill="url(#bbc55)" stroke="#04699a" stroke-width="2" stroke-linecap="round" stroke-linejoin="round"/></g><g transform="translate(837.7264441847797, 680.4979018867016) rotate(0, 18.5, 9.5)" width="37" height="19"><text text-decoration="none" x="1" fill="rgb(219, 59, 15)" font-size="9pt" font-family="Arial"  y="17">delete</text><text text-decoration="none" x="36" fill="#4b4b4b" font-size="10pt" font-family="noto_regular"  y="17"></text></g></g><g id="7nr4onjsao"><g transform="translate(535 660)"><linearGradient id="30594" x1="79.99019944667816" y1="-34.99632966518402" x2="79.99019944667816" y2="69.99265933036804" gradientUnits="userSpaceOnUse"><stop offset="0%" stop-color="rgba(255,255,255,1)"/><stop offset="100%" stop-color="rgba(239,239,239,1)"/></linearGradient><ellipse cx="79.99019944667816" cy="34.99632966518402" rx="79.99019944667816" ry="34.99632966518402" fill="url(#30594)" stroke="#04699a" stroke-width="2" stroke-linecap="round" stroke-linejoin="round"/></g><g transform="translate(586.4901994466782, 685.496329665184) rotate(0, 28.5, 9.5)" width="57" height="19"><text text-decoration="none" x="1.5" fill="rgb(219, 59, 15)" font-size="10pt" font-family="Arial"  y="17">Payment</text><text text-decoration="none" x="55.5" fill="#4b4b4b" font-size="10pt" font-family="noto_regular"  y="17"></text></g></g><g id="5m2m6bu69y"><g transform="translate(979.9999999999995 725)"><linearGradient id="bbc55" x1="56.22644418478012" y1="-19.997901886701584" x2="56.22644418478012" y2="39.99580377340317" gradientUnits="userSpaceOnUse"><stop offset="0%" stop-color="rgba(255,255,255,1)"/><stop offset="100%" stop-color="rgba(239,239,239,1)"/></linearGradient><ellipse cx="56.22644418478012" cy="19.997901886701584" rx="56.22644418478012" ry="19.997901886701584" fill="url(#bbc55)" stroke="#04699a" stroke-width="2" stroke-linecap="round" stroke-linejoin="round"/></g><g transform="translate(993.7264441847797, 727.4979018867016) rotate(0, 42.5, 17.5)" width="85" height="35"><text text-decoration="none" x="4" fill="rgb(219, 59, 15)" font-size="10pt" font-family="Arial"  y="14">Validate&#160;</text><text text-decoration="none" x="55" fill="rgb(219, 59, 15)" font-size="10pt" font-family="Arial"  y="14">card&#160;</text><text text-decoration="none" x="23" fill="rgb(219, 59, 15)" font-size="10pt" font-family="Arial"  y="36">details</text><text text-decoration="none" x="62" fill="#4b4b4b" font-size="10pt" font-family="noto_regular"  y="36"></text></g></g><g id="5agdpw7srx"><g transform="translate(545 745)"><linearGradient id="30594" x1="79.99019944667816" y1="-34.99632966518402" x2="79.99019944667816" y2="69.99265933036804" gradientUnits="userSpaceOnUse"><stop offset="0%" stop-color="rgba(255,255,255,1)"/><stop offset="100%" stop-color="rgba(239,239,239,1)"/></linearGradient><ellipse cx="79.99019944667816" cy="34.99632966518402" rx="79.99019944667816" ry="34.99632966518402" fill="url(#30594)" stroke="#04699a" stroke-width="2" stroke-linecap="round" stroke-linejoin="round"/></g><g transform="translate(600.9901994466782, 770.496329665184) rotate(0, 24, 9.5)" width="48" height="19"><text text-decoration="none" x="1" fill="rgb(219, 59, 15)" font-size="9pt" font-family="Arial"  y="17">Register</text><text text-decoration="none" x="47" fill="#4b4b4b" font-size="10pt" font-family="noto_regular"  y="17"></text></g></g><g id="4fh7h3rr19"><g transform="translate(555 830)"><linearGradient id="30594" x1="79.99019944667816" y1="-34.99632966518402" x2="79.99019944667816" y2="69.99265933036804" gradientUnits="userSpaceOnUse"><stop offset="0%" stop-color="rgba(255,255,255,1)"/><stop offset="100%" stop-color="rgba(239,239,239,1)"/></linearGradient><ellipse cx="79.99019944667816" cy="34.99632966518402" rx="79.99019944667816" ry="34.99632966518402" fill="url(#30594)" stroke="#04699a" stroke-width="2" stroke-linecap="round" stroke-linejoin="round"/></g><g transform="translate(598.4901994466782, 855.496329665184) rotate(0, 36.5, 9.5)" width="73" height="19"><text text-decoration="none" x="2.5" fill="rgb(219, 59, 15)" font-size="9pt" font-family="Arial"  y="17">Return&#160;</text><text text-decoration="none" x="42.5" fill="rgb(219, 59, 15)" font-size="9pt" font-family="Arial"  y="17">Book</text><text text-decoration="none" x="70.5" fill="#4b4b4b" font-size="10pt" font-family="noto_regular"  y="17"></text></g></g><g id="2bogp5r6uw"><g transform="translate(555 905)"><linearGradient id="30594" x1="79.99019944667816" y1="-34.99632966518402" x2="79.99019944667816" y2="69.99265933036804" gradientUnits="userSpaceOnUse"><stop offset="0%" stop-color="rgba(255,255,255,1)"/><stop offset="100%" stop-color="rgba(239,239,239,1)"/></linearGradient><ellipse cx="79.99019944667816" cy="34.99632966518402" rx="79.99019944667816" ry="34.99632966518402" fill="url(#30594)" stroke="#04699a" stroke-width="2" stroke-linecap="round" stroke-linejoin="round"/></g><g transform="translate(582.9901994466782, 930.496329665184) rotate(0, 52, 9.5)" width="104" height="19"><text text-decoration="none" x="4" fill="rgb(219, 59, 15)" font-size="9pt" font-family="Arial"  y="17">Download&#160;</text><text text-decoration="none" x="63" fill="rgb(219, 59, 15)" font-size="9pt" font-family="Arial"  y="17">E&#160;</text><text text-decoration="none" x="73" fill="rgb(219, 59, 15)" font-size="9pt" font-family="Arial"  y="17">book</text><text text-decoration="none" x="100" fill="#4b4b4b" font-size="10pt" font-family="noto_regular"  y="17"></text></g></g><g id="wx0538wnc5"><mask id="72531" x="677" y="587" width="135.99999999999955" height="116" maskUnits="userSpaceOnUse"><rect x="677" y="587" width="135.99999999999955" height="116" fill="white" /><rect x="678.0251352694037" y="619.4296561295122" width="102" height="25" fill="black" /></mask><g mask="url(#72531)"><path d="M 799.9999999999995,690 L 690,600" fill="none" stroke="#b7b7b7" stroke-width="1.5" stroke-linecap="round" stroke-linejoin="round"/><path d="M 690,600 L 693.0889461773539,609.9566700378736 L 700.3711807653125,601.0561610970353 Z" fill="rgb(183,183,183)" stroke="#b7b7b7" stroke-width="1.5" stroke-linecap="round" stroke-linejoin="round"/></g><g transform="translate(681.0251352694037, 622.4296561295122)" width="96" height="19"><text text-decoration="none" x="10" fill="rgb(75, 75, 75)" font-size="10pt" font-family="Lato"  y="17">&#x3C;&#x3C;extends&#x3E;&#x3E;</text><text text-decoration="none" x="86" fill="#4b4b4b" font-size="10pt" font-family="noto_regular"  y="17"></text></g></g><g id="tsw8ukp5f1"><mask id="55df1" x="637" y="562" width="280.99999999999955" height="96" maskUnits="userSpaceOnUse"><rect x="637" y="562" width="280.99999999999955" height="96" fill="white" /><rect x="689.4673590336178" y="587.3341769896206" width="102" height="25" fill="black" /></mask><g mask="url(#55df1)"><path d="M 904.9999999999995,645 L 650,575" fill="none" stroke="#b7b7b7" stroke-width="1.5" stroke-linecap="round" stroke-linejoin="round"/><path d="M 650,575 L 656.8633221192549,582.8467621486205 L 659.9075674097384,571.7570114475737 Z" fill="rgb(183,183,183)" stroke="#b7b7b7" stroke-width="1.5" stroke-linecap="round" stroke-linejoin="round"/></g><g transform="translate(692.4673590336178, 590.3341769896206)" width="96" height="19"><text text-decoration="none" x="10" fill="rgb(75, 75, 75)" font-size="10pt" font-family="Lato"  y="17">&#x3C;&#x3C;extends&#x3E;&#x3E;</text><text text-decoration="none" x="86" fill="#4b4b4b" font-size="10pt" font-family="noto_regular"  y="17"></text></g></g><g id="4qsocap3nn"><mask id="acaaa" x="682.0333333333333" y="482" width="275.96666666666624" height="46" maskUnits="userSpaceOnUse"><rect x="682.0333333333333" y="482" width="275.96666666666624" height="46" fill="white" /><rect x="804.0166666666664" y="492.5" width="32" height="25" fill="black" /><rect x="732.7149967834116" y="495.4045208601084" width="102" height="25" fill="black" /></mask><g mask="url(#acaaa)"><path d="M 944.9999999999995,495 L 695.0333333333333,515" fill="none" stroke="#b7b7b7" stroke-width="1.5" stroke-linecap="round" stroke-linejoin="round"/><path d="M 695.0333333333333,515 L 704.1598807114033,520.0381543927834 L 703.242689140685,508.57478841142336 Z" fill="rgb(183,183,183)" stroke="#b7b7b7" stroke-width="1.5" stroke-linecap="round" stroke-linejoin="round"/></g><g transform="translate(807.0166666666664, 495.5)" width="26" height="19"><text text-decoration="none" x="1" fill="rgb(75, 75, 75)" font-size="10pt" font-family="Lato"  y="17">text</text><text text-decoration="none" x="25" fill="#4b4b4b" font-size="10pt" font-family="noto_regular"  y="17"></text></g><g transform="translate(735.7149967834116, 498.4045208601084)" width="96" height="19"><text text-decoration="none" x="10" fill="rgb(75, 75, 75)" font-size="10pt" font-family="Lato"  y="17">&#x3C;&#x3C;extends&#x3E;&#x3E;</text><text text-decoration="none" x="86" fill="#4b4b4b" font-size="10pt" font-family="noto_regular"  y="17"></text></g></g><g id="1q13fqkzh6"><mask id="ca7fc" x="677.0333333333333" y="512" width="280.96666666666624" height="56" maskUnits="userSpaceOnUse"><rect x="677.0333333333333" y="512" width="280.96666666666624" height="56" fill="white" /><rect x="759.0166666666664" y="527.5" width="117" height="25" fill="black" /></mask><g mask="url(#ca7fc)"><path d="M 944.9999999999995,555 L 690.0333333333333,525" fill="none" stroke="#b7b7b7" stroke-width="1.5" stroke-linecap="round" stroke-linejoin="round"/><path d="M 690.0333333333333,525 L 697.9974863227135,531.7267476458853 L 699.3413339377634,520.3055360819783 Z" fill="rgb(183,183,183)" stroke="#b7b7b7" stroke-width="1.5" stroke-linecap="round" stroke-linejoin="round"/></g><g transform="translate(762.0166666666664, 530.5)" width="111" height="19"><text text-decoration="none" x="12.5" fill="rgb(75, 75, 75)" font-size="10pt" font-family="Lato"  y="17">,&#x3C;&#x3C;&#x3C;extends&#x3E;&#x3E;</text><text text-decoration="none" x="98.5" fill="#4b4b4b" font-size="10pt" font-family="noto_regular"  y="17"></text></g></g><g id="9xiacdxalz"><g><path d="M 695,695 L 979.9999999999995,745" fill="none" stroke="#b7b7b7" stroke-width="1.5" stroke-linecap="round" stroke-linejoin="round"/><path d="M 979.9999999999995,745 L 972.4287533059696,737.8338929516913 L 970.4415593088762,749.160898735124 Z" fill="rgb(183,183,183)" stroke="#b7b7b7" stroke-width="1.5" stroke-linecap="round" stroke-linejoin="round"/></g></g><g id="1zuegoo8gp"><g transform="translate(1335 715)"><linearGradient id="ad156" x1="20.3985" y1="-40.403" x2="20.3985" y2="80.806" gradientUnits="userSpaceOnUse"><stop offset="0%" stop-color="rgba(255,255,255,1)"/><stop offset="100%" stop-color="rgba(255,239,170,1)"/></linearGradient><ellipse cx="20.3985" cy="10.10075" rx="10.19925" ry="10.10075" fill="url(#ad156)" stroke="#552189" stroke-width="2" stroke-linecap="round" stroke-linejoin="round"/><path d="M 20.3985,20.2015 L 20.3985,48.483599999999996 L 40.797,80.806 M 20.3985,48.483599999999996 L 0,80.806 M 2.03985,30.30225 L 38.757149999999996,30.30225" fill="none" stroke="#552189" stroke-width="2" stroke-linecap="round" stroke-linejoin="round"/><rect x="0" y="0" width="40.797" height="80.806" fill="rgba(255,255,255,0.01)" stroke="rgba(255,255,255,0.01)" stroke-width="2" stroke-linecap="round" stroke-linejoin="round"/></g><g transform="translate(1338.3985, 800.806) rotate(0, 17, 0)" width="34" height="19"><text text-decoration="none" x="2" fill="rgb(85, 33, 137)" font-weight="bold" font-size="9pt" font-family="Arial"  y="17">Bank</text><text text-decoration="none" x="32" fill="#4b4b4b" font-size="10pt" font-family="noto_regular"  y="17"></text></g></g><g id="1yhgm3q6lw"><g><path d="M 1089.9999999999995,745 L 1335,745" fill="none" stroke="#b7b7b7" stroke-width="1.5" stroke-linecap="round" stroke-linejoin="round"/><path d="M 1335,745 L 1326.304347826087,739.25 L 1326.304347826087,750.75 Z" fill="rgb(183,183,183)" stroke="#b7b7b7" stroke-width="1.5" stroke-linecap="round" stroke-linejoin="round"/></g></g><g id="2bslww70ln"><g><path d="M 325,570 L 535,695" fill="none" stroke="#b7b7b7" stroke-width="1.5" stroke-linecap="round" stroke-linejoin="round"/><path d="M 535,695 L 530.4689201553189,685.6113801775339 L 524.5868557679905,695.4932483482455 Z" fill="rgb(183,183,183)" stroke="#b7b7b7" stroke-width="1.5" stroke-linecap="round" stroke-linejoin="round"/></g></g><g id="aluoprhkcp"><g><path d="M 325,570 L 545,780" fill="none" stroke="#b7b7b7" stroke-width="1.5" stroke-linecap="round" stroke-linejoin="round"/><path d="M 545,780 L 542.6801873334803,769.8365686935006 L 534.7397162466315,778.1551574511516 Z" fill="rgb(183,183,183)" stroke="#b7b7b7" stroke-width="1.5" stroke-linecap="round" stroke-linejoin="round"/></g></g><g id="1w913e7el5"><g><path d="M 325,570 L 555,865" fill="none" stroke="#b7b7b7" stroke-width="1.5" stroke-linecap="round" stroke-linejoin="round"/><path d="M 555,865 L 554.1879764422428,854.6068539666121 L 545.1187092169214,861.6778080744898 Z" fill="rgb(183,183,183)" stroke="#b7b7b7" stroke-width="1.5" stroke-linecap="round" stroke-linejoin="round"/></g></g><g id="2guvyq62t1"><g><path d="M 325,570 L 555,940" fill="none" stroke="#b7b7b7" stroke-width="1.5" stroke-linecap="round" stroke-linejoin="round"/><path d="M 555,940 L 555.2926591323632,929.5792890184056 L 545.5258778915392,935.6505314113502 Z" fill="rgb(183,183,183)" stroke="#b7b7b7" stroke-width="1.5" stroke-linecap="round" stroke-linejoin="round"/></g></g><g id="162gzoo19a"><g transform="translate(860 1325.05)"><linearGradient id="665c7" x1="87.51321583986282" y1="-37.499998927116394" x2="87.51321583986282" y2="74.99999785423279" gradientUnits="userSpaceOnUse"><stop offset="0%" stop-color="rgba(255,255,255,1)"/><stop offset="100%" stop-color="rgba(239,239,239,1)"/></linearGradient><ellipse cx="87.51321583986282" cy="37.499998927116394" rx="87.51321583986282" ry="37.499998927116394" fill="url(#665c7)" stroke="#04699a" stroke-width="2" stroke-linecap="round" stroke-linejoin="round"/></g><g transform="translate(909.0132158398628, 1353.0499989271163) rotate(0, 38.5, 9.5)" width="77" height="19"><text text-decoration="none" x="2" fill="rgb(214, 77, 4)" font-size="9pt" font-family="Arial"  y="17">Delete&#160;</text><text text-decoration="none" x="42" fill="rgb(214, 77, 4)" font-size="9pt" font-family="Arial"  y="17">books</text><text text-decoration="none" x="75" fill="#4b4b4b" font-size="10pt" font-family="noto_regular"  y="17"></text></g></g><g id="bbsj84ite5"><g transform="translate(660 1295)"><linearGradient id="aa349" x1="77.51170313358307" y1="-34.9999982714653" x2="77.51170313358307" y2="69.9999965429306" gradientUnits="userSpaceOnUse"><stop offset="0%" stop-color="rgba(255,255,255,1)"/><stop offset="100%" stop-color="rgba(239,239,239,1)"/></linearGradient><ellipse cx="77.51170313358307" cy="34.9999982714653" rx="77.51170313358307" ry="34.9999982714653" fill="url(#aa349)" stroke="#04699a" stroke-width="2" stroke-linecap="round" stroke-linejoin="round"/></g><g transform="translate(701.5117031335831, 1320.4999982714653) rotate(0, 36, 9.5)" width="72" height="19"><text text-decoration="none" x="2" fill="rgb(214, 77, 4)" font-size="9pt" font-family="Arial"  y="17">Give&#160;</text><text text-decoration="none" x="30" fill="rgb(214, 77, 4)" font-size="9pt" font-family="Arial"  y="17">reward</text><text text-decoration="none" x="70" fill="#4b4b4b" font-size="10pt" font-family="noto_regular"  y="17"></text></g></g><g id="2pm3v23mwm"><g transform="translate(1010 1030)"><linearGradient id="21316" x1="53.2080352306366" y1="-20.499999195337296" x2="53.2080352306366" y2="40.99999839067459" gradientUnits="userSpaceOnUse"><stop offset="0%" stop-color="rgba(255,255,255,1)"/><stop offset="100%" stop-color="rgba(239,239,239,1)"/></linearGradient><ellipse cx="53.2080352306366" cy="20.499999195337296" rx="53.2080352306366" ry="20.499999195337296" fill="url(#21316)" stroke="#04699a" stroke-width="2" stroke-linecap="round" stroke-linejoin="round"/></g><g transform="translate(1011.7080352306366, 1040.9999991953373) rotate(0, 51.5, 9.5)" width="103" height="19"><text text-decoration="none" x="2.5" fill="rgb(214, 77, 4)" font-size="9pt" font-family="Arial"  y="17">Manage&#160;</text><text text-decoration="none" x="51.5" fill="rgb(214, 77, 4)" font-size="9pt" font-family="Arial"  y="17">Payment</text><text text-decoration="none" x="100.5" fill="#4b4b4b" font-size="10pt" font-family="noto_regular"  y="17"></text></g></g><g id="18824vp068"><mask id="ae803" x="897" y="1047" width="131" height="156" maskUnits="userSpaceOnUse"><rect x="897" y="1047" width="131" height="156" fill="white" /><rect x="911.5" y="1112.5" width="102" height="25" fill="black" /></mask><g mask="url(#ae803)"><path d="M 1015,1060 L 910,1190" fill="none" stroke="#b7b7b7" stroke-width="1.5" stroke-linecap="round" stroke-linejoin="round"/><path d="M 910,1190 L 919.9369627173681,1186.848232450939 L 910.9906391450253,1179.6223557194312 Z" fill="rgb(183,183,183)" stroke="#b7b7b7" stroke-width="1.5" stroke-linecap="round" stroke-linejoin="round"/></g><g transform="translate(914.5, 1115.5)" width="96" height="19"><text text-decoration="none" x="10" fill="rgb(75, 75, 75)" font-size="10pt" font-family="Lato"  y="17">&#x3C;&#x3C;extends&#x3E;&#x3E;</text><text text-decoration="none" x="86" fill="#4b4b4b" font-size="10pt" font-family="noto_regular"  y="17"></text></g></g><g id="1jivy3yiyx"><g><path d="M 1335,745 L 1110,1040" fill="none" stroke="#b7b7b7" stroke-width="1.5" stroke-linecap="round" stroke-linejoin="round"/><path d="M 1110,1040 L 1119.8454240490362,1036.5729762147982 L 1110.7015181409417,1029.5988106916752 Z" fill="rgb(183,183,183)" stroke="#b7b7b7" stroke-width="1.5" stroke-linecap="round" stroke-linejoin="round"/></g></g><g id="2gwuaftqbh"><mask id="dcda0" x="762" y="1217" width="31" height="96" maskUnits="userSpaceOnUse"><rect x="762" y="1217" width="31" height="96" fill="white" /><rect x="726.5" y="1252.5" width="102" height="25" fill="black" /></mask><g mask="url(#dcda0)"><path d="M 775,1300 L 780,1230" fill="none" stroke="#b7b7b7" stroke-width="1.5" stroke-linecap="round" stroke-linejoin="round"/><path d="M 780,1230 L 773.645072910861,1238.2638833741412 L 785.1158479589145,1239.083224449002 Z" fill="rgb(183,183,183)" stroke="#b7b7b7" stroke-width="1.5" stroke-linecap="round" stroke-linejoin="round"/></g><g transform="translate(729.5, 1255.5)" width="96" height="19"><text text-decoration="none" x="10" fill="rgb(75, 75, 75)" font-size="10pt" font-family="Lato"  y="17">&#x3C;&#x3C;extends&#x3E;&#x3E;</text><text text-decoration="none" x="86" fill="#4b4b4b" font-size="10pt" font-family="noto_regular"  y="17"></text></g></g><g id="4bvc88zq20"><mask id="c65d8" x="817" y="1222" width="146" height="116.04999999999995" maskUnits="userSpaceOnUse"><rect x="817" y="1222" width="146" height="116.04999999999995" fill="white" /><rect x="839" y="1267.525" width="102" height="25" fill="black" /><rect x="910.0047998930135" y="1294.5436019197155" width="32" height="25" fill="black" /></mask><g mask="url(#c65d8)"><path d="M 950,1325.05 L 830,1235" fill="none" stroke="#b7b7b7" stroke-width="1.5" stroke-linecap="round" stroke-linejoin="round"/><path d="M 830,1235 L 833.503904167072,1244.818325840878 L 840.4063567645144,1235.6201657998665 Z" fill="rgb(183,183,183)" stroke="#b7b7b7" stroke-width="1.5" stroke-linecap="round" stroke-linejoin="round"/></g><g transform="translate(842, 1270.525)" width="96" height="19"><text text-decoration="none" x="10" fill="rgb(75, 75, 75)" font-size="10pt" font-family="Lato"  y="17">&#x3C;&#x3C;extends&#x3E;&#x3E;</text><text text-decoration="none" x="86" fill="#4b4b4b" font-size="10pt" font-family="noto_regular"  y="17"></text></g><g transform="translate(913.0047998930135, 1297.5436019197155)" width="26" height="19"><text text-decoration="none" x="1" fill="rgb(75, 75, 75)" font-size="10pt" font-family="Lato"  y="17">text</text><text text-decoration="none" x="25" fill="#4b4b4b" font-size="10pt" font-family="noto_regular"  y="17"></text></g></g></svg>